<?xml version="1.0" encoding="utf-8"?>
<!-- Generator: Adobe Illustrator 24.0.2, SVG Export Plug-In . SVG Version: 6.00 Build 0)  -->
<svg version="1.1" id="Layer_1" xmlns="http://www.w3.org/2000/svg" xmlns:xlink="http://www.w3.org/1999/xlink" x="0px" y="0px"
	 viewBox="0 0 40.5 36.4" style="enable-background:new 0 0 40.5 36.4;" xml:space="preserve">
<style type="text/css">
	.st0{fill:#1A1A1A;}
</style>
<g id="Layer_3">
</g>
<g id="Layer_2_1_">
	<path class="st0" d="M5.3,22.8c0.2,0.2,0.5,0.3,0.7,0.4c0.2,0.1,0.5,0.3,0.9,0.4L7,23.3l0.5-1.1l-0.9-0.5l-0.5-0.3"/>
	<polyline class="st0" points="3.8,21.5 4.4,22.1 5,22.6 5.9,21.3 4.8,20.3 	"/>
	<polyline class="st0" points="7.7,22.2 7.1,23.8 8.6,24.1 9,22.7 8.4,22.4 	"/>
	<polyline class="st0" points="9.2,22.8 8.9,24.2 10.2,24.5 10.3,23 	"/>
	<polyline class="st0" points="10.7,23 10.6,24.4 11,24.5 11.5,24.7 12.7,24.7 12.8,23.1 	"/>
	<polyline class="st0" points="8.5,22.1 9,22.2 9.5,22.3 9.7,22.2 9.8,22.4 10,22.3 10.2,22 10.2,21.6 10.2,21.2 10,21.1 9.6,20.9 
		8.9,20.8 8.7,21.3 8.4,22 8.3,22.1 	"/>
	<polyline class="st0" points="10.6,21.2 10.5,21.5 10.5,22.2 10.5,22.4 10.9,22.7 11.3,22.7 11.8,22.8 12.4,22.8 12.5,22.2 
		12.4,21.5 11.9,21.4 11.3,21.3 11.2,21.3 	"/>
	<path class="st0" d="M13.1,23.1l0,1l0,0.5l0.5,0l0.4-0.1l0.4-0.2l0-0.4l-0.1-0.3l-0.1-0.1l-0.2-0.3l0-0.2
		C14.1,23,13.1,23.1,13.1,23.1"/>
	<polyline class="st0" points="16.4,22.1 16.5,22.7 17,23.4 17.6,23.2 18.2,22.7 17.7,22.1 17.6,21.9 17.5,21.7 17.2,21.7 17,21.8 	
		"/>
	<polyline class="st0" points="15.7,20.5 15.8,21.1 16.2,21.7 16.5,21.7 16.9,21.5 17.2,21.3 16.9,20.6 16.7,20.4 16.6,20.1 
		16.3,20.1 16.3,20.1 	"/>
	<polyline class="st0" points="3.5,18.4 3.7,18.7 4,19 4.3,19.4 4.6,19.7 4.8,20 5.2,19.6 5.7,19.1 6,18.9 5.7,18.5 5.3,18 5,17.6 
		4.7,17.4 4,18 	"/>
	<path class="st0" d="M6.8,21.3L7,21.5l0.4,0.1l0.3,0.2L8,21.9l0.2-0.2l0.3-0.6l0.1-0.5l0-0.2l-0.5-0.1l-0.3-0.1l-0.2-0.1l-0.2,0.2
		l-0.3,0.5C7.1,20.9,6.8,21.3,6.8,21.3"/>
	<path class="st0" d="M11.7,15.9l0,0.4l-0.2,0.3l-0.2,0.5l0.2,0.1l0.6,0.1l0.7-0.1l0.1-0.5c0,0-0.1-0.3-0.1-0.5c0-0.2,0-0.4,0-0.4
		l-0.3-0.1"/>
	<polyline class="st0" points="12.2,17.6 12.2,18.2 12.3,18.5 12.3,18.9 12.6,19 13.3,19.1 13.7,18.9 13.6,18.5 13.6,17.6 
		12.6,17.5 	"/>
	<polyline class="st0" points="11.9,19.5 12,20.3 12,21 12.2,21.1 12.6,21 13.1,20.9 13.2,20.4 13.2,20 13,19.8 12.9,19.5 
		12.6,19.4 	"/>
	<polyline class="st0" points="12.7,21.4 12.7,22.2 12.8,22.7 13.2,22.8 13.4,22.8 13.6,22.6 14.1,22.5 14.2,22.5 14.1,21.7 
		14,21.2 13.7,21.1 13.3,21.1 13,21.2 	"/>
	<path class="st0" d="M14.8,24.2l0.5-0.1l0.4-0.3l0.9-0.3L16.3,23l-0.3-0.5l-0.2-0.1l-0.2,0.1l-0.3,0.1l-0.6,0.2l-0.2,0.1l0,0.5
		l0.2,0.3C14.8,23.7,14.8,24.2,14.8,24.2"/>
	<polyline class="st0" points="14.5,22.4 15.2,22.3 15.6,22 15.8,21.8 15.7,21.5 15.4,21 15.2,20.6 14.9,20.7 14.2,21 14.2,21.3 
		14.3,21.7 	"/>
	<path class="st0" d="M13.2,19.4l0.1,0.5l0.1,0.4l0.1,0.4l0.5,0l0.7-0.3l0-0.1l-0.2-0.6l-0.1-0.5L14.3,19l-0.5,0.1
		C13.8,19.1,13.2,19.4,13.2,19.4"/>
	<polyline class="st0" points="9.3,16.2 9.7,16.4 10.2,16.8 10.7,17.1 10.9,17.1 11.1,16.8 11.4,16.3 11.4,16 11.2,15.9 10.7,15.7 
		10.2,15.4 10,15.5 	"/>
	<polyline class="st0" points="13.9,17.5 13.9,17.9 14.1,18.8 14.8,18.6 15.4,18.5 15.4,18.3 15.1,17.5 14.9,17.2 14.5,17.3 	"/>
	<polyline class="st0" points="14.6,18.9 14.6,19.2 14.8,19.8 15.1,20.2 15.6,20 15.7,19.9 16,19.8 16,19.4 15.9,19.3 15.6,19.1 
		15.5,19 15.3,18.8 	"/>
	<path class="st0" d="M13.2,15.9l0.1,0.6l0.1,0.5l0.1,0.3l0.4-0.1l0.4-0.1l0.4-0.1l-0.1-0.3l-0.2-0.3c0-0.4-0.4-0.7-0.5-0.7
		C13.5,15.6,13.5,15.8,13.2,15.9"/>
	<polyline class="st0" points="7.5,19.6 7.8,19.2 8.1,18.8 8.3,18.5 8.5,18.4 8.8,18.6 8.6,19 8.5,19.6 8.5,20.1 8.1,20.1 7.8,19.8 
			"/>
	<polyline class="st0" points="8.9,18.7 8.8,19 8.7,19.6 8.7,19.9 8.7,20.1 9,20.3 9.3,20.5 9.9,20.7 9.9,20.2 9.9,19.6 10,19.2 
		10,19 9.6,18.9 	"/>
	<polyline class="st0" points="10.4,19.3 10.3,19.5 10.2,19.8 10.2,20.1 10.2,20.8 10.5,21 10.9,21 11.3,21 11.5,21.1 11.6,20.8 
		11.6,20.3 11.6,19.4 11.3,19.4 10.8,19.4 	"/>
	<polyline class="st0" points="7.4,13.6 7.7,14.1 7.8,14.5 8,14.8 8.2,14.7 8.9,14.1 8.9,13.8 8.7,13.4 8.5,13.1 8.3,13.1 	"/>
	<polyline class="st0" points="9.2,14.4 8.9,14.5 8.1,15.1 8.3,15.4 8.5,15.6 8.7,15.8 8.9,16 9.1,16.1 9.4,15.7 9.7,15.6 9.9,15.2 
		9.8,15.1 9.6,14.7 	"/>
	<path class="st0" d="M8,17.5l0.3,0.3l0.2,0.2l0.9,0.4l0.2-0.1L9.7,18l0.2-0.3l0.1-0.2l0.2-0.2l0-0.2L10,17l-0.3-0.1l-0.4-0.2
		l-0.2-0.1L9,16.5l-0.1,0.2L8.7,17l-0.3,0.3l-0.3,0.1C8.1,17.4,8,17.6,8,17.5"/>
	<polyline class="st0" points="2.4,19.8 2.8,19.6 3,19.4 3.2,19.3 3.5,19 3.7,19 3.9,19.3 4.2,19.7 4.5,20 4.6,20.3 4.3,20.6 
		3.9,20.9 3.7,21.2 3.6,21.3 3.3,21.1 3,20.8 2.9,20.6 2.7,20.2 2.5,19.9 	"/>
	<polyline class="st0" points="6.6,15.9 6.7,16.2 6.9,16.3 7.1,16.7 7.4,16.9 7.6,17.2 7.8,17.3 8.1,17 8.4,16.7 8.8,16.5 8.8,16.3 
		8.6,16.2 8.4,15.9 8.3,15.7 8,15.5 7.8,15.4 7.7,15.3 7.4,15.3 7.1,15.5 6.9,15.7 	"/>
	<path class="st0" d="M1.5,18.1l0.3,0.8l0.3,0.6l0.1,0.1l0.4-0.1l0.3-0.3L3.2,19l0.4-0.1l-0.1-0.2L3.1,18l-0.2-0.6l-0.2,0l-0.3,0.3
		C1.9,17.8,1.8,17.9,1.5,18.1"/>
	<polyline class="st0" points="4.7,16.4 4.9,16.2 5.1,16.2 5.7,16 5.9,15.7 6.1,15.8 6.2,16 6.5,16.4 6.9,16.7 6.6,17 6.3,17.2 
		5.7,17.7 5.5,17.8 5.1,17.3 4.9,16.9 4.7,16.7 	"/>
	<polyline class="st0" points="1.3,17.7 1,17.2 0.9,16.9 0.7,16.3 1.1,16.1 1.7,15.9 2.2,15.7 2.3,15.8 2.4,16.2 2.6,16.5 2.7,16.8 
		2.7,17.1 2.5,17.3 2.2,17.4 1.8,17.6 1.6,17.8 1.3,17.8 	"/>
	<polyline class="st0" points="2.8,16.3 2.8,16.6 3,17 3.2,17.3 3.3,17.7 3.5,17.8 3.8,17.7 4.1,17.7 4.3,17.5 4.7,17.2 4.7,17 
		4.4,16.5 4.2,16.1 4,15.9 3.7,15.9 3.3,16.1 	"/>
	<polyline class="st0" points="3.9,14.2 4.1,14.6 4.2,15.1 4.4,15.4 4.5,15.8 4.6,16 4.7,16.1 5.1,16 5.3,15.9 5.6,15.7 5.9,15.5 
		5.9,15.3 5.7,14.8 5.5,14.3 5.4,14.1 5.3,13.8 5.2,13.7 5,13.7 4.8,13.8 4.6,13.8 4.3,13.9 4.2,14.1 	"/>
	<polyline class="st0" points="2.2,14.7 2.2,15 2.3,15.2 2.6,15.6 2.6,15.8 2.6,16.1 2.9,16.1 3.2,15.9 3.6,15.8 4,15.7 4,15.5 
		3.9,15.1 3.8,14.7 3.6,14.4 3.5,14.2 3.2,14.3 2.7,14.5 	"/>
	<polyline class="st0" points="5,20.2 5.3,19.9 5.5,19.6 5.8,19.4 6.1,19.1 6.4,19.3 7,19.7 7.4,20 7.3,20.3 7.2,20.5 7,20.8 
		6.7,21 6.5,21 6.2,20.9 5.9,21 5.5,20.7 5.2,20.4 	"/>
	<path class="st0" d="M0.7,15.8l0.3,0l0.5-0.1L2,15.4L2,15c0,0,0-0.1-0.1-0.2c0-0.1-0.1-0.4-0.1-0.4l-0.1-0.3l0-0.2l-0.1-0.1l-0.4,0
		L0.7,14L0.3,14l-0.2,0.3l0,0.6l0.2,0.2l0.1,0.5"/>
	<path class="st0" d="M3.8,13.8l0.4,0l0.3-0.2l0.3-0.1l0.3-0.1l0-0.2l-0.2-0.8l-0.6,0l-0.8,0.1l0,0.3l0,0.4l0.2,0.3
		C3.7,13.5,3.9,13.7,3.8,13.8"/>
	<polyline class="st0" points="2.1,14.3 2.4,14.4 2.7,14.3 2.9,14.1 3.5,14 3.5,13.8 3.4,13.4 3.3,13.1 3.3,12.6 3,12.7 2.7,12.8 
		2.1,12.4 1.9,12.7 2,13.1 2,13.5 	"/>
	<path class="st0" d="M5.7,18l0.1-0.2l0.6-0.4L7,17c0.1-0.1,0.3,0.1,0.3,0.1l0.3,0.4l0.3,0.4l0.2,0.2l0,0.3l-0.2,0.2l-0.2,0.3
		l-0.2,0.2l-0.3,0.3l-0.3-0.1L6.8,19l-0.4-0.1L6,18.5l-0.2-0.2"/>
	<polyline class="st0" points="14.7,6.6 14.6,6.9 14.7,7.1 14.9,7.3 15.3,7.6 15.6,7.7 15.9,7.5 16.3,7.1 16.5,6.8 16.2,6.6 
		15.8,6.2 15.1,5.8 14.9,6.3 	"/>
	<polyline class="st0" points="15.9,8 15.9,7.7 16.3,7.4 16.8,7.1 17,7.1 17.3,7.4 17.7,7.9 17.9,8.2 17.8,8.3 17,9.1 16.8,9.1 
		16.4,8.6 	"/>
	<polyline class="st0" points="15.4,10.3 16.2,9.9 16.7,9.6 16.4,9 15.9,8.5 15.6,8.3 15.4,8.5 14.8,9.2 14.8,9.5 15,9.8 15.2,10 	
		"/>
	<polyline class="st0" points="17.4,7 17.7,7.4 18,7.7 18.2,8 18.6,7.8 19.1,7.5 19.5,7.2 19.4,7 18.7,6.3 18.4,5.9 18.2,5.9 
		17.9,6.2 17.7,6.5 17.5,6.8 	"/>
	<polyline class="st0" points="14.6,9 15,8.6 15.3,8.3 15.4,8.1 15,7.7 14.4,7.3 13.8,7.1 13.7,7.4 13.6,7.8 13.4,8.4 13.7,8.7 
		13.9,8.8 14.2,8.9 	"/>
	<path class="st0" d="M16,12l0.1-0.2l0.4,0l0.6,0l0.1,0.4l0,0.6l0,0.4l-0.5,0l-0.4,0l-0.3,0l0-0.7C16,12.5,16.1,12,16,12"/>
	<polyline class="st0" points="17.1,6.8 17.4,6.4 17.7,6 18,5.7 17.5,5.3 17.1,5 16.6,4.6 16.5,4.7 16.2,5.3 16,5.9 16.2,6.2 
		16.4,6.4 16.7,6.6 	"/>
	<polyline class="st0" points="18.3,8.2 18.5,8.8 18.8,9.5 19.2,9.2 19.7,9 20.1,8.7 20,8.3 19.9,7.8 19.6,7.5 19.2,7.8 	"/>
	<polyline class="st0" points="16.4,4.1 16.7,4.4 17.1,4.5 17.5,4.8 17.7,5 18,4.8 18.2,4.5 18.6,4.1 18.1,3.7 17.8,3.5 17.4,3.1 
		17.1,3 16.8,3.5 	"/>
	<polyline class="st0" points="16.3,3.9 16.6,3.4 16.8,2.9 16.5,2.7 15,2.4 14.8,2.9 14.8,3.4 14.9,3.6 15.4,3.7 	"/>
	<polyline class="st0" points="15.6,5.7 15.9,5.3 16.2,4.9 16.3,4.5 16.1,4.3 15.7,4.1 15,3.9 14.8,3.9 14.6,4.2 14.4,5.1 14.7,5.3 
		15,5.5 	"/>
	<path class="st0" d="M15.9,11.5l-0.2-0.4l-0.1-0.6l0.6-0.2l0.5-0.3l0.2,0.4l0,0.3l0.1,0.3l0,0.5l-0.4,0l-0.4,0.1
		C16.4,11.6,15.9,11.4,15.9,11.5"/>
	<polyline class="st0" points="17.9,5.2 18.2,5.6 18.6,5.7 18.9,5.9 19.3,5.6 19.9,5.1 19.5,4.7 18.8,4.3 18.3,4.7 	"/>
	<path class="st0" d="M19.1,6.1l0.4-0.4L20,5.3l0.4,0.5l0.3,0.5l0.4,0.5l-0.5,0.3l-0.5,0.2L19.7,7l-0.3-0.5
		C19.4,6.5,19.1,6.2,19.1,6.1"/>
	<polyline class="st0" points="17.4,10.4 18.2,10 18.4,10 18.5,9.5 18.3,8.9 17.9,8.5 17.4,9.2 17,9.4 17.1,9.8 	"/>
	<polyline class="st0" points="20,4.7 20,5 20.4,5.2 20.7,5.9 21.3,5.4 21.8,4.9 21.5,4.4 21.1,4 20.9,3.8 	"/>
	<polyline class="st0" points="20.3,7.7 20.2,8.2 20.4,8.8 21.2,8.7 21.6,8.6 21.5,8 21.2,7.2 20.8,7.3 	"/>
	<polyline class="st0" points="29.9,17.8 29.9,18.3 30,18.7 30.2,18.8 30.4,18.8 30.7,18.7 31.4,18.4 31.2,17.7 31,17.4 30.4,17.6 	
		"/>
	<polyline class="st0" points="21,6.1 21.3,6.5 21.5,7.1 22.1,6.8 22.3,6.8 22.6,6.4 22,5.2 21.6,5.5 	"/>
	<path class="st0" d="M9,6l0.2,0.8l0.4,0.6l0.6-0.3L11,6.9l-0.2-0.7l-0.2-0.8L9.9,5.6L9.5,5.9C9.5,5.9,9,5.9,9,6"/>
	<polyline class="st0" points="20.6,9.2 20.6,9.5 20.7,10.5 21.3,10.4 21.9,10.4 21.9,9.8 21.7,8.9 21.2,9 	"/>
	<polyline class="st0" points="21.7,7.4 21.8,8 22,8.6 22.5,8.5 23.2,8.4 23,7.4 22.8,6.9 22.3,7 	"/>
	<polyline class="st0" points="18.6,3.7 18.9,3.2 19.3,3 19.5,2.5 19.9,3 20.6,3.6 20.5,3.9 19.8,4.4 19.5,4.3 19.1,4.1 18.9,4 	"/>
	<polyline class="st0" points="17.3,2.8 17.8,3.1 18,3.3 18.4,3.7 18.8,3.1 19.3,2.4 18.4,1.7 17.8,1.5 17.6,2.2 	"/>
	<polyline class="st0" points="6.2,2.1 6.3,2.3 6.5,2.6 7.1,3 7.7,2.7 8.1,2.5 7.9,2 7.6,1.3 7,1.5 6.4,1.9 	"/>
	<polyline class="st0" points="22.1,9 22.4,8.8 23.3,8.6 23.5,9.4 23.5,10.1 23.1,10.1 22.5,10.2 22.2,9.7 22.2,9.5 22.2,9.4 	"/>
	<polyline class="st0" points="17.6,1.5 17.4,2 17.2,2.6 16.8,2.4 16.2,2.3 16.3,1.6 16.6,0.9 17.2,1.2 	"/>
	<polyline class="st0" points="20.2,15.2 20.4,16 20.8,16.6 21.3,16.3 21.8,16.2 22,15.9 21.6,15.2 21.4,14.7 20.9,14.8 	"/>
	<polyline class="st0" points="21.7,14.5 21.7,14.7 21.9,15.2 22.1,15.5 22.4,16.1 22.9,16.1 23.5,15.6 23.2,15.1 23,14.5 
		22.8,14.1 22.2,14.3 	"/>
	<path class="st0" d="M22,18.4l0.3,0.4l0.5,0.2l0.2,0.4l0.4,0.3l0.4-0.3l0.4-0.5l0.1-0.3l-0.4-0.2l-0.6-0.4l-0.3-0.2l-0.3,0
		l-0.4,0.4C22.4,18.1,22,18.3,22,18.4"/>
	<polyline class="st0" points="24.2,18.1 24.5,18.5 25.1,18.6 25.7,18.8 26,18.3 26.1,17.8 26,17.5 24.9,17.1 24.4,17.5 24,17.9 	
		"/>
	<path class="st0" d="M23.2,21.6l0.3-0.5l0.3-0.6l0-0.3l-0.5-0.3l-0.5-0.2l-0.2-0.3l-0.3,0.1L22,20l-0.4,0.3l0,0.5l0.3,0.3l0.5,0.1
		l0.4,0.4l0.3,0.2C22.9,21.7,23.1,21.7,23.2,21.6"/>
	<polyline class="st0" points="24,19.9 24.2,20.2 24.9,20.4 25.4,20.5 25.7,20.1 26,19.2 25.4,19 24.7,18.9 24.5,19.2 	"/>
	<polyline class="st0" points="21.1,16.7 21.1,17.2 21.5,17.7 21.9,18.1 22.5,17.7 22.9,17.4 22.6,16.9 22.2,16.4 21.7,16.5 	"/>
	<polyline class="st0" points="18.8,9.7 18.8,10.1 19,10.4 19.1,11.1 19.8,11 20.4,10.7 20.3,10.2 20.2,9.3 19.9,9.2 	"/>
	<polyline class="st0" points="19.2,11.4 19.7,11.4 20.2,11.1 20.5,11.1 20.7,11.9 20.7,12.6 20.3,12.7 19.7,12.8 19.4,12.4 	"/>
	<polyline class="st0" points="19.6,13.2 20.1,13 20.9,12.9 20.9,13.3 21,13.7 21,14 21.2,14.4 20.7,14.6 20.1,14.8 19.9,14.3 	"/>
	<polyline class="st0" points="21.1,12.2 21.8,12.2 22.2,12.2 22.4,11.9 22.2,11.3 22.2,10.5 20.9,10.8 20.9,11.3 	"/>
	<polyline class="st0" points="22.7,11.9 23,11.9 23.3,12 23.7,12 23.9,11.8 23.8,11.1 23.6,10.4 22.4,10.4 22.5,11 22.5,11.4 	"/>
	<polyline class="st0" points="21.1,12.6 21.1,12.9 21.2,13.2 21.2,13.7 21.5,14.2 22.2,14 22.5,13.9 22.5,13.4 22.3,12.4 	"/>
	<path class="st0" d="M23.1,13.9l0,0.2l0.1,0.5l0.3,0.2l0.3,0.6l0.5-0.3l0.6-0.6l-0.2-0.4l-0.4-0.8l-0.5,0.4
		C23.7,13.7,23.1,14,23.1,13.9"/>
	<polyline class="st0" points="22.7,12.3 22.7,12.9 23,13.5 23.5,13.4 24,13.1 24,13 24.1,12.7 24,12.2 23.6,12.3 23.1,12.3 	"/>
	<polyline class="st0" points="19.9,18.5 20.1,18.8 20.5,19.1 20.7,19.5 21.2,20 21.6,20.1 21.9,19.5 22.3,19.1 22,18.7 21.2,17.8 
		20.6,18 	"/>
	<polyline class="st0" points="25.7,22.5 26.4,22.5 27.2,22.6 27.4,22.5 27.5,21.2 27,21 26.7,20.9 25.9,20.9 25.8,21.6 25.7,22 	
		"/>
	<polyline class="st0" points="26.1,20.6 26.7,20.6 27.3,20.7 27.7,20.7 27.8,20.4 27.8,19.6 27.4,19.6 26.6,19.5 26.2,19.5 
		26,19.9 	"/>
	<polyline class="st0" points="26.3,19.2 26.8,19.2 27.4,19.3 27.7,18.7 27.7,17.8 27.2,17.7 26.7,17.7 26.4,17.8 26.2,18.3 	"/>
	<path class="st0" d="M27.9,19l0.6,0l0.5,0l0.7-0.2l-0.1-1c0-0.2-0.7,0-0.7,0l-0.5-0.1l-0.6,0"/>
	<polyline class="st0" points="30.2,19.2 30.4,19.9 30.6,20.3 31.4,20 32,19.9 31.8,19.3 31.5,18.7 	"/>
	<polyline class="st0" points="28,19.4 28.3,19.2 29.3,19.3 29.9,19.2 30.1,19.9 29.9,20.2 29.3,20.6 28.4,20.6 28.1,20.5 	"/>
	<polyline class="st0" points="25.2,22.5 25.5,21.9 25.6,21.4 25.6,21.1 25.1,21 24.7,20.9 24.2,20.6 24,21 23.9,21.4 23.5,21.8 
		23.7,22.1 24.2,22.3 24.8,22.5 	"/>
	<polyline class="st0" points="22.8,23.2 23,23.6 23.6,23.8 24.1,24 24.4,24.1 24.7,23.5 24.8,23.1 24.8,22.9 24.5,22.7 24.2,22.6 
		23.8,22.5 23.4,22.4 	"/>
	<polyline class="st0" points="18.9,16.7 19,17.1 19.2,17.4 19.6,18.2 20,18.2 20.5,17.8 20.8,17.6 20.9,17.3 20.6,16.9 20.4,16.5 
		20.1,16 19.4,16.3 	"/>
	<polyline class="st0" points="16.3,13.6 16.2,14.1 16.3,14.7 16.5,15.3 16.8,15.5 18,15.2 17.6,13.6 16.9,13.6 	"/>
	<polyline class="st0" points="22.8,16.5 22.9,16.9 23.2,17.4 23.6,17.7 24,17.6 24.3,17.2 24.6,16.9 24.5,16.6 24,16.3 23.6,15.9 
		23.2,16.2 	"/>
	<polyline class="st0" points="25.2,16.8 25.6,16.5 26,15.8 25.6,15.4 25.3,15.2 24.9,14.9 24.5,15.3 24.2,15.7 24,16 24.5,16.2 
		24.8,16.5 	"/>
	<path class="st0" d="M26.5,16l0.6,0.2l0.6,0.1l0,0.5l0,0.5c0,0.3-0.5,0.2-0.5,0.2l-0.3-0.1L26,17.3l-0.4-0.2l0-0.3l0.5-0.7l0.1-0.3
		"/>
	<polyline class="st0" points="27.8,22.6 28.4,22.5 28.8,22.4 29.3,22.4 29.4,22 29.3,21.2 29,20.9 28.6,20.9 27.8,20.9 	"/>
	<polyline class="st0" points="27.9,16.3 27.9,16.9 27.9,17.4 28.2,17.6 29.4,17.6 29.3,17 29.2,16.4 29.1,16.1 	"/>
	<polyline class="st0" points="25.3,22.9 25.1,23.2 25,23.8 25,24.2 25.3,24.4 26,24.4 26.7,24.4 26.7,23.9 26.6,22.9 	"/>
	<polyline class="st0" points="29.5,16.1 29.8,16 30.2,16 30.4,16.3 30.6,16.6 30.8,17.1 30.5,17.3 30.1,17.3 29.8,17.5 29.5,16.5 	
		"/>
	<polyline class="st0" points="31.1,17.1 31.5,16.8 31.9,16.5 32,16.7 32.4,17 32.6,17.3 32.3,17.6 32,17.8 31.7,18 31.3,17.4 	"/>
	<polyline class="st0" points="27.1,23 27,23.4 27,24.4 27.6,24.4 28.4,24.3 28.2,23.6 28,22.9 	"/>
	<polyline class="st0" points="28.7,24.3 29.3,24.2 29.9,24.2 29.9,23.8 29.7,23.2 29.6,22.7 29.2,22.8 28.4,22.9 28.3,23.1 
		28.5,23.7 	"/>
	<polyline class="st0" points="18.8,16.3 19.3,16.1 19.8,15.8 20,15.6 19.7,14.7 19.3,14.7 19,14.9 18.2,15 18.4,15.6 	"/>
	<polyline class="st0" points="22.5,23.3 22.9,22.7 23.3,22.3 23.3,22 22.4,21.6 22.1,21.6 21.9,21.8 21.5,22.2 21.4,22.6 
		21.8,22.9 	"/>
	<polyline class="st0" points="17.6,12.4 17.7,13 17.9,13.4 18.1,14 18.1,14.6 18.7,14.5 19.2,14.5 19.6,14.4 19.4,13.5 19.3,12.7 
		18.9,12.1 18.5,12.3 18.1,12.4 	"/>
	<path class="st0" d="M18.6,17.2l0.3,0.4l0.5,0.8l-0.5,0.2l-0.8,0.6l-0.3-0.4l-0.1-0.6l-0.3-0.4l0.5-0.3
		C17.9,17.5,18.5,17.1,18.6,17.2"/>
	<polyline class="st0" points="31,20.5 31.2,21.1 31.4,21.6 31.6,21.9 32.1,21.8 32.8,21.5 32.5,20.8 32.1,20.2 	"/>
	<polyline class="st0" points="30,22.7 30,23.1 30.1,23.7 30.3,24.1 31.1,23.8 31.8,23.7 31.6,23.2 31.2,22.5 30.9,22.5 30.4,22.6 	
		"/>
	<polyline class="st0" points="31.7,22.4 31.7,22.7 31.9,23.1 32.1,23.7 32.7,23.6 33.5,23.2 34.1,23 33.5,22.2 33.4,21.8 
		33.2,21.7 32.4,22 	"/>
	<path class="st0" d="M17.1,17.3l0.5,0.1l0.6-0.3l0.4-0.2l-0.2-0.5L18,15.4l-0.5,0.1l-0.7,0.3l0,0.5C16.9,16.3,17.1,17.3,17.1,17.3"
		/>
	<polyline class="st0" points="17.4,10.7 17.8,10.5 18.2,10.4 18.5,10.4 18.7,10.7 18.8,11.3 18.9,11.8 18.5,11.8 18.3,12.1 
		17.7,12.2 17.5,12 17.4,11.4 	"/>
	<polyline class="st0" points="8.3,4.7 8.5,5.2 8.8,5.6 9,5.7 9.5,5.6 10,5.4 10.4,5.3 10.4,4.8 10.3,4.4 10.1,3.9 9.7,4.2 9.2,4.2 
			"/>
	<path class="st0" d="M8.2,4.4l0.4-0.2L9.1,4l0-0.5L8.8,2.8c-0.1-0.2-0.5,0-0.5,0L7.9,3L7.6,3.2L7.5,3.4L7.9,4"/>
	<polyline class="st0" points="9.6,0.5 9.7,1.1 9.8,1.7 10.1,1.7 10.2,1.7 11.1,1.6 11.2,0.4 10.6,0.3 	"/>
	<polyline class="st0" points="12.5,3.5 12.6,4.5 12.6,4.8 13,4.7 13.4,5 14.2,5.1 14.3,4.5 14.4,3.8 13.8,3.7 13.4,3.7 13.1,3.5 	
		"/>
	<polyline class="st0" points="13.2,0.3 13,0.6 13,1.1 13,1.5 13.6,1.7 14.6,1.9 14.7,1.2 14.7,0.6 14.4,0.4 	"/>
	<polyline class="st0" points="15.1,0.6 15.6,0.7 16.2,0.9 16.1,1.7 16,2.1 15.5,2.1 14.8,1.9 14.9,1.1 	"/>
	<polyline class="st0" points="7.8,1.1 8,1.6 8.4,2.3 9.1,2.1 9.6,1.8 9.5,1.3 9.4,1 9.1,0.7 	"/>
	<polyline class="st0" points="5.5,13.5 5.4,13 5.3,12.5 5.3,12.1 5.6,12.1 6.1,11.9 6.8,11.9 6.9,12.4 7.1,13.3 6.8,13.3 6.2,13.5 
			"/>
	<path class="st0" d="M5.7,13.9l0.6-0.2l0.3,0L7,13.6L7.3,14l0.1,0.5L7.7,15l-0.6,0.2l-0.5,0.3l-0.3-0.2l-0.4-0.9
		C5.9,14.4,5.7,13.9,5.7,13.9"/>
	<polyline class="st0" points="7.1,11.9 7.2,12.4 7.3,13 7.4,13.3 8,13 8.4,12.9 8.4,12.3 8.3,11.9 8.1,11.8 	"/>
	<polyline class="st0" points="29.5,20.8 29.6,21.3 29.7,21.6 29.7,22.4 30.1,22.3 30.5,22.1 31.2,22 31.1,21.6 30.9,21.1 
		30.5,20.5 30.1,20.5 	"/>
	<polyline class="st0" points="9.8,7.6 10,8.2 10.4,8.8 10.8,8.6 11.3,8.4 11.9,8.3 11.8,7.8 11.5,7.2 11.3,7.1 10.8,7.2 	"/>
	<polyline class="st0" points="11.9,7 12,7.4 12.1,7.7 12.1,8.3 12.4,8.4 13,8.4 13.3,8 13.5,7.1 	"/>
	<polyline class="st0" points="9,2.4 9.2,2.8 9.2,3.3 9.3,3.8 9.9,3.7 10.4,3.6 10.8,3.4 10.6,3 10.6,2.4 10.4,1.9 9.8,2.1 	"/>
	<polyline class="st0" points="10.8,2 10.8,2.4 10.8,2.7 10.9,2.9 11,3.3 11.5,3.4 12,3.2 12.5,3.2 12.6,3.1 12.5,2.6 12.3,1.9 
		11.7,1.9 11.5,2 	"/>
	<polyline class="st0" points="14.5,3.5 14.6,3 14.6,2.8 14.7,2.3 14,2.1 13.3,1.9 13,1.9 12.8,1.9 12.8,2.3 12.8,2.6 12.8,3.1 
		13.2,3.2 13.7,3.4 	"/>
	<polyline class="st0" points="11.5,0.2 11.5,0.6 11.5,1.1 11.4,1.6 11.8,1.5 12.3,1.6 12.5,1.5 12.8,1.5 12.8,1 12.8,0.5 12.8,0.3 
		12.6,0.2 12.2,0.2 11.9,0.2 	"/>
	<polyline class="st0" points="10.5,3.8 10.6,4.2 10.6,4.5 10.8,4.9 10.9,5 11.3,4.9 11.7,4.9 12.2,4.8 12.3,4.6 12.2,3.5 11.8,3.5 
		11.3,3.6 10.9,3.6 	"/>
	<polyline class="st0" points="10.3,11.1 10.4,11.4 10.6,11.5 10.9,11.9 11.1,12 11.4,11.7 12,11.3 11.9,10.9 11.7,10.7 11.3,10.3 
		10.9,10.5 	"/>
	<polyline class="st0" points="11.5,10.1 11.8,10.5 12.1,10.9 12.4,10.6 12.7,10.3 12.8,10.1 12.5,10 12.1,10 	"/>
	<polyline class="st0" points="13.1,10.3 12.9,10.4 12.6,10.7 12.4,10.9 12.4,11.2 12.6,11.4 12.7,11.6 12.9,11.9 13.1,12.1 
		13.4,11.9 13.6,11.6 13.8,11.3 14,11.2 13.9,11 13.7,10.7 13.5,10.4 	"/>
	<polyline class="st0" points="10,12.7 10.2,12.8 10.5,12.6 10.6,12.4 10.8,12.3 10.8,12.1 10.6,11.9 10.4,11.7 10.3,11.6 
		10.1,11.7 	"/>
	<polyline class="st0" points="11,12.4 10.9,12.5 10.7,12.7 10.5,12.9 10.4,13 10.2,13.1 10.3,13.3 10.5,13.6 10.7,13.7 10.8,14 
		11.1,14 11.3,13.9 11.5,13.6 11.9,13.5 11.9,13.3 11.6,13.1 11.3,12.9 	"/>
	<path class="st0" d="M13.4,12.2l0.2,0.2l0.3,0.2l0.3,0.1l0.1-0.3l0-0.3l0-0.3l-0.1-0.3C14,11.4,13.4,12.2,13.4,12.2"/>
	<polyline class="st0" points="13.1,12.4 13.2,12.4 13.5,12.7 13.7,12.9 13.9,13 13.7,13.3 13.6,13.5 13.3,13.8 13,13.7 12.9,13.4 
		12.5,13.2 12.6,13 12.9,12.7 	"/>
	<path class="st0" d="M12.2,13.4l-0.3,0.3l-0.2,0.1l-0.3,0.3l0.4,0.3l0.3,0.1l0.4-0.1l0.3-0.1l0.1-0.3l-0.3-0.3l-0.2-0.2
		C12.4,13.5,12.2,13.4,12.2,13.4"/>
	<polyline class="st0" points="10.9,5.4 10.8,5.6 10.9,5.9 11,6.2 11.2,6.8 11.6,6.8 12.3,6.7 12.5,6.7 12.6,6.4 12.5,6 12.4,5.6 
		12.3,5.2 11.9,5.1 11.3,5.2 	"/>
	<polyline class="st0" points="12.7,5.3 12.7,5.6 12.7,6.1 12.8,6.6 12.9,6.7 13.5,6.8 14,6.8 14.3,6.9 14.5,6.5 14.5,6.1 14.6,5.6 
		14.3,5.4 14,5.3 13.6,5.4 	"/>
	<path class="st0" d="M9.9,18.7l0.4,0.2l0.7,0.1l0.7,0.1l0.1-0.4c0,0,0.2-0.1,0.2-0.2c0-0.1,0-0.9,0-0.9l-0.3,0l-0.3-0.1l-0.2-0.1
		l-0.8-0.1l-0.2,0.3"/>
	<polyline class="st0" points="8.2,8.9 8,9.3 7.8,9.5 7.5,10.2 8.1,10.4 8.7,10.6 9.1,10.1 9.2,9.8 9,9.5 8.7,9.2 	"/>
	<polyline class="st0" points="7.5,9.4 7.4,9.8 7.3,10.1 7,10.5 6.4,10.2 5.8,9.9 6,9.5 6.2,9 6.4,8.6 6.9,8.9 7.3,9.2 	"/>
	<polyline class="st0" points="6.9,10.7 6.4,10.5 5.7,10.2 5.5,10.6 5.4,11.1 5.3,11.6 5.6,11.7 5.9,11.7 6.4,11.7 6.6,11.7 	"/>
	<polyline class="st0" points="5.5,9.9 5.4,10.5 5.2,11.1 4.9,11.2 4.4,11 4.2,11 3.9,10.9 3.9,10.4 4,10.1 4.1,9.8 4.3,9.4 
		4.4,9.3 5,9.6 	"/>
	<polyline class="st0" points="3.9,9.5 3.3,9.2 2.6,8.9 2.5,9.3 2.3,9.8 2.3,10.2 2.2,10.3 3.5,10.8 3.6,10.6 	"/>
	<polyline class="st0" points="3.5,11.1 3,10.9 2.4,10.8 2.1,10.9 2,11.5 2.1,11.8 2.1,12 2.8,12.1 3.4,12.3 3.5,11.8 	"/>
	<polyline class="st0" points="3.4,13.6 3,13.6 2.6,13.7 2.2,13.8 2.1,13.4 2,13 2,12.7 2.1,12.4 2.4,12.4 2.9,12.5 3.1,12.6 
		3.3,12.6 3.4,12.8 3.4,13 3.3,13.2 3.5,13.4 	"/>
	<polyline class="st0" points="6.2,8.3 5.9,8.9 5.8,9.3 5.6,9.6 5.2,9.4 4.9,9.3 4.5,9.1 4.5,8.8 4.6,8.7 4.7,8.5 4.7,8.2 4.9,7.8 
		5,7.7 5.4,7.9 	"/>
	<polyline class="st0" points="8.6,10.9 8.5,10.7 8.1,10.6 7.8,10.5 7.3,10.4 7.1,10.9 7.1,11.2 7,11.6 7.7,11.6 8.4,11.6 	"/>
	<polyline class="st0" points="5.4,7.4 5.9,7.8 6.4,8.1 6.6,7.8 6.8,7.7 6.9,7.5 7.1,7.3 6.8,6.9 6.4,6.5 6.2,6.4 5.7,6.7 5.5,7 
		5.4,7.3 	"/>
	<polyline class="st0" points="4.7,2.9 4.8,3.2 5,3.4 5.4,3.8 5.6,4 6,3.9 6.4,3.6 6.7,3.4 6.6,2.9 6.2,2.3 5.9,2.3 5.5,2.4 
		5.1,2.7 	"/>
	<path class="st0" d="M5.3,4.3c0,0,0.1,0,0-0.1c0-0.1-0.2-0.3-0.2-0.3L4.7,3.4L4.5,3.2L4.2,3.1L4.1,3.4L3.7,3.7L3.3,4L3.2,4.2
		l0.1,0.3l0.4,0.2L4,5l0.2,0.2L4.4,5l0.3-0.2L5,4.6"/>
	<polyline class="st0" points="6.7,5.4 6.5,5 6.3,4.8 6.2,4.5 6,4.5 5.9,4.7 5.4,4.8 5,4.9 4.8,5.3 5.3,5.9 5.8,6.3 6.2,6.1 
		6.6,5.7 	"/>
	<polyline class="st0" points="4.5,5.6 4.1,6 4,6.3 3.9,6.5 4.3,6.7 4.5,6.9 4.9,7.3 5.2,7.1 5.4,6.8 5.6,6.6 5.6,6.4 5.3,6.2 
		5.1,6.1 4.8,5.8 	"/>
	<polyline class="st0" points="3.7,6.7 3.5,7 3.3,7.4 3,7.9 2.9,8.3 2.9,8.6 3,8.9 3.4,9 3.7,9.1 4.1,9.3 4.3,8.8 4.4,8.4 4.5,8.1 
		4.7,7.7 4.7,7.5 4.5,7.3 4.2,7 	"/>
	<polyline class="st0" points="8,4.7 7.8,4.8 7.5,5 7.3,5.2 6.9,5.3 6.7,5 6.5,4.6 6.3,4.3 6.4,4 6.8,3.9 7,3.7 7.2,3.5 7.5,3.9 
		7.8,4.2 	"/>
	<polyline class="st0" points="8.1,5.1 7.7,5.2 7.5,5.4 7.2,5.7 7,5.7 6.6,6.1 6.5,6.3 6.8,6.5 7,6.7 7.1,7 7.4,7.2 7.6,7.1 8,6.9 
		8.2,6.6 8.6,6.3 8.4,5.7 	"/>
	<polyline class="st0" points="7.8,7.3 7.4,7.4 7.2,7.8 6.8,8 6.5,8.3 6.9,8.7 7.2,8.9 7.5,9.2 7.8,9.1 8,8.9 8.3,8.5 8.5,8.2 
		8.3,7.8 	"/>
	<polyline class="st0" points="9.6,7.9 9.4,8 9.1,8.2 8.9,8.4 8.7,8.5 8.5,8.7 8.9,9.2 9.3,9.5 9.6,9.5 9.8,9.2 10.2,8.9 10.1,8.7 
		9.9,8.4 	"/>
	<polyline class="st0" points="8.8,6.5 8.7,6.6 8.4,6.8 8.1,7.1 8.2,7.2 8.4,7.5 8.7,7.9 8.9,8 9.1,7.9 9.4,7.6 9.2,7 	"/>
	<path class="st0" d="M2.4,8.6L2.1,8.5L1.5,8.3L1,8.1L0.8,8.3L0.6,8.9L0.5,9.2L1,9.4l0.6,0.2L2,9.7l0.1-0.3l0.1-0.2l0.1-0.3
		C2.3,8.9,2.4,8.6,2.4,8.6"/>
	<polyline class="st0" points="3,7.2 2.6,6.9 2.3,6.7 1.8,6.5 1.7,6.4 1.4,6.8 1.2,7.3 1.1,7.7 1.4,7.9 1.9,8.1 2.3,8.3 2.5,8.4 	
		"/>
	<polyline class="st0" points="3,4.6 2.7,4.7 2.4,5.1 2.1,5.6 1.9,6.2 2.3,6.4 2.7,6.7 3.3,6.9 3.4,6.5 3.5,6.2 3.7,6 4,5.4 
		3.7,5.2 	"/>
	<polyline class="st0" points="1.9,9.9 1.4,9.7 0.9,9.6 0.5,9.5 0.4,9.7 0.2,10.2 0.2,10.7 0.7,10.8 1,10.8 1.7,10.9 1.8,10.9 
		1.9,10.5 1.8,10.4 	"/>
	<polyline class="st0" points="1.7,11.2 1.3,11.1 0.9,11.1 0.2,11 0.1,11.3 0.1,11.6 0.1,11.9 0.2,12.2 0.2,12.4 0.5,12.4 0.9,12.3 
		1.2,12.2 1.5,12.2 1.7,12.1 1.8,11.9 1.7,11.7 	"/>
	<polyline class="st0" points="5,13.3 4.7,13.4 4.1,13.5 3.7,13.6 3.6,13 3.6,12.6 3.7,12.5 4.1,12.4 4.6,12.4 4.9,12.4 5,12.6 
		5,12.9 5,13.1 	"/>
	<polyline class="st0" points="5,11.4 4.8,11.4 4.4,11.3 3.8,11.2 3.8,11.3 3.7,11.7 3.6,12.1 3.7,12.3 4.1,12.3 4.4,12.2 4.7,12.2 
		4.9,12.1 	"/>
	<polyline class="st0" points="1.4,12.5 1,12.5 0.2,12.6 0,12.9 0.1,13.2 0.2,13.7 0.6,13.7 1.7,13.4 1.7,13.3 1.6,13.1 1.6,12.8 	
		"/>
	<path class="st0" d="M20.1,21.5c0.3,0.3,0.7,0.7,0.9,0.8c0,0,0.8-0.9,0.8-0.9c-0.3-0.3-0.7-0.7-0.8-0.9c0,0-0.8,0.6-1,0.8"/>
	<polyline class="st0" points="18.4,19.3 18.5,19.7 18.7,20.1 19.1,20.2 19.3,20.7 19.8,21 20.2,20.6 20.5,20.3 20.7,20.1 
		20.6,19.9 20.3,19.6 19.8,19.2 19.5,18.8 19.3,18.7 18.8,19 	"/>
	<polyline class="st0" points="36,22 35.3,22.4 34.5,22.9 33.6,21.7 35.1,20.8 	"/>
	<polyline class="st0" points="36.5,18.9 36.3,19.2 36,19.5 35.6,19.8 35.3,20.2 35.1,20.4 34.7,19.9 34.3,19.4 34,19.2 34.4,18.8 
		34.8,18.4 35.2,18 35.4,17.8 36,18.5 	"/>
	<polyline class="st0" points="33.1,13.9 32.9,14.5 32.6,15 32.3,15.3 32.1,15.2 31.5,14.6 31.5,14.3 31.8,13.8 32,13.5 32.1,13.3 	
		"/>
	<polyline class="st0" points="31.2,14.8 31.4,15 32.1,15.7 31.9,16 31.7,16.2 31.5,16.3 31.3,16.6 31,16.7 30.8,16.2 30.5,16.1 
		30.4,15.8 30.5,15.6 30.8,15.2 	"/>
	<polyline class="st0" points="37.4,20.4 37.2,20.2 37,20 36.8,19.8 36.5,19.5 36.3,19.5 36.1,19.8 35.7,20.2 35.4,20.5 35.2,20.7 
		35.5,21 35.9,21.4 36.1,21.7 36.2,21.8 36.5,21.6 36.8,21.4 36.9,21.1 37.1,20.8 37.4,20.5 	"/>
	<polyline class="st0" points="33.8,16.2 33.8,16.4 33.6,16.5 33.4,16.7 33.2,16.9 33,17 32.8,17.1 32.5,16.7 32.3,16.5 32,16.3 
		32,16.1 32.2,16 32.3,15.9 32.4,15.7 32.6,15.6 32.8,15.4 32.9,15.5 33.1,15.5 33.3,15.7 33.5,15.8 	"/>
	<path class="st0" d="M38.5,18.8l-0.4,0.8l-0.4,0.5l-0.1,0.1l-0.3-0.1L37,19.7l-0.3-0.2l-0.3-0.2l0.1-0.2l0.4-0.6l0.2-0.5l0.2,0
		l0.3,0.3C38.2,18.4,38.2,18.6,38.5,18.8"/>
	<polyline class="st0" points="35.6,16.8 35.4,16.7 35.1,16.6 34.6,16.3 34.4,16 34.2,16.1 34,16.3 33.8,16.6 33.3,17 33.6,17.2 
		33.9,17.5 34.4,18 34.6,18.1 35,17.7 35.2,17.3 35.5,17.1 	"/>
	<polyline class="st0" points="38.8,18.4 39.1,17.9 39.2,17.6 39.4,17.1 39.1,16.9 38.6,16.6 38.1,16.4 37.9,16.5 37.8,16.8 
		37.6,17.2 37.5,17.4 37.4,17.7 37.6,17.9 37.9,18.1 38.2,18.3 38.5,18.5 38.7,18.5 	"/>
	<polyline class="st0" points="37.4,16.9 37.3,17.2 37.1,17.6 36.9,17.9 36.8,18.2 36.6,18.3 36.3,18.2 36,18.1 35.8,17.9 
		35.4,17.7 35.4,17.4 35.9,16.9 36.1,16.6 36.3,16.4 36.6,16.4 37,16.7 	"/>
	<polyline class="st0" points="36.5,14.7 36.3,15.1 36.1,15.6 35.9,15.9 35.8,16.2 35.7,16.4 35.6,16.5 35.2,16.4 35,16.3 34.7,16 
		34.4,15.9 34.4,15.6 34.7,15.2 34.9,14.7 35,14.5 35.1,14.2 35.2,14.1 35.4,14.1 35.7,14.2 35.9,14.3 36.1,14.4 36.3,14.6 	"/>
	<polyline class="st0" points="38.2,15.4 38.1,15.7 38,15.9 37.7,16.2 37.6,16.5 37.6,16.7 37.4,16.7 37,16.5 36.7,16.3 36.3,16.2 
		36.3,16 36.4,15.6 36.6,15.3 36.8,15 36.9,14.8 37.2,14.9 37.6,15.1 	"/>
	<polyline class="st0" points="34.9,20.6 34.6,20.3 34.4,19.9 34.2,19.7 33.9,19.4 33.6,19.5 33,19.8 32.4,20.1 32.6,20.3 
		32.7,20.7 32.9,21 33.1,21.2 33.2,21.4 33.2,21.5 33.9,21.3 34.3,21 34.6,20.8 	"/>
	<path class="st0" d="M39.6,16.6l-0.3-0.1l-0.5-0.1l-0.5-0.4l0-0.4c0,0,0-0.1,0.1-0.2c0.1-0.1,0.2-0.4,0.2-0.4l0.2-0.3l0-0.2
		l0.1-0.1l0.4,0l0.4,0.2l0.3,0.1l0.1,0.4l-0.1,0.6L39.8,16l-0.1,0.5"/>
	<path class="st0" d="M36.6,14.3l-0.4,0L36,14l-0.3-0.2l-0.3-0.1l0.1-0.2l0.2-0.7l0.6,0.1L37,13l0,0.3l-0.1,0.4L36.8,14
		C36.8,14,36.6,14.3,36.6,14.3"/>
	<polyline class="st0" points="38.2,15 37.9,15 37.7,14.9 37.5,14.7 36.9,14.6 36.9,14.3 37.1,14 37.2,13.7 37.3,13.2 37.5,13.3 
		37.8,13.4 38.5,13.1 38.6,13.4 38.5,13.8 38.5,14.2 	"/>
	<path class="st0" d="M34.4,18.3l-0.1-0.2l-0.6-0.5l-0.5-0.4c0-0.1-0.3,0.1-0.3,0.1l-0.3,0.3l-0.6,0.5l-0.2,0.2l0,0.3l0.1,0.3
		l0.1,0.3l0.2,0.2l0.2,0.4l0.5-0.2l0.4-0.3l0.4-0.1l0.5-0.4l0.2-0.2"/>
	<polyline class="st0" points="26.5,6.2 26.7,6.5 26.5,6.7 26.3,6.9 25.8,7.1 25.6,7.2 25.3,7 25,6.5 24.8,6.2 25.1,6.1 25.6,5.7 
		26.2,5.4 26.4,5.9 	"/>
	<polyline class="st0" points="26.5,8.6 26.1,8.2 25.8,7.8 25.8,7.6 26.1,7.3 26.8,6.9 27.4,6.8 27.5,7 27.6,7.5 27.7,8.1 27.4,8.3 
		27.1,8.5 26.9,8.6 	"/>
	<polyline class="st0" points="23.9,4.6 24.3,4.4 24.8,4.1 25,4.2 25.2,4.8 25.4,5.4 25.2,5.7 24.9,5.9 24.6,6 	"/>
	<polyline class="st0" points="25.1,3.6 24.8,3.8 24.4,4 24,4.3 23.9,4.2 23.6,3.9 23.4,3.6 23.1,3.2 23.5,3 23.8,2.9 24.2,2.5 
		24.5,2.4 24.8,2.9 	"/>
	<polyline class="st0" points="25.3,3.4 25,2.9 24.8,2.4 25.1,2.2 26.7,2 26.8,2.5 26.7,3 26.6,3.2 26.1,3.3 	"/>
	<polyline class="st0" points="25.7,5.2 25.5,4.8 25.3,4.4 25.2,4 25.4,3.8 25.8,3.7 26.5,3.5 26.8,3.5 26.8,3.8 27,4.7 26.7,4.9 
		26.4,5.1 	"/>
	<path class="st0" d="M32.2,6.1l-0.3,0.7l-0.4,0.6l-0.6-0.3l-0.8-0.3l0.3-0.6l0.3-0.7l0.6,0.2l0.4,0.3C31.8,5.9,32.2,6,32.2,6.1"/>
	<polyline class="st0" points="24.3,2.2 23.8,2.4 23.6,2.7 23.2,3 22.8,2.4 22.4,1.7 23.4,1 24,0.8 24.1,1.6 	"/>
	<polyline class="st0" points="35.3,2.4 35.2,2.6 35,3 34.4,3.3 33.8,3 33.4,2.7 33.6,2.2 34,1.6 34.6,1.8 35.2,2.2 	"/>
	<polyline class="st0" points="24.2,0.8 24.3,1.4 24.4,2 24.9,1.9 25.5,1.8 25.5,1.1 25.2,0.4 24.6,0.6 	"/>
	<polyline class="st0" points="33,4.9 32.8,5.4 32.5,5.7 32.3,5.8 31.8,5.7 31.3,5.5 30.9,5.3 30.9,4.8 31,4.4 31.3,4 31.7,4.2 
		32.2,4.3 	"/>
	<path class="st0" d="M33.2,4.6l-0.3-0.2l-0.5-0.2l0-0.5l0.3-0.7c0.1-0.2,0.5,0,0.5,0l0.4,0.2l0.3,0.3l0.1,0.2l-0.4,0.6"/>
	<polyline class="st0" points="32.1,0.6 31.9,1.2 31.8,1.8 31.5,1.7 31.4,1.7 30.5,1.5 30.6,0.3 31.2,0.3 	"/>
	<polyline class="st0" points="29,3.3 28.9,4.3 28.8,4.6 28.4,4.5 28,4.7 27.2,4.7 27.2,4.1 27.1,3.4 27.7,3.4 28.1,3.4 28.4,3.2 	
		"/>
	<polyline class="st0" points="28.6,0 28.7,0.4 28.7,0.9 28.7,1.3 28.1,1.4 27.1,1.6 27.1,0.8 27.1,0.2 27.5,0.1 	"/>
	<polyline class="st0" points="26.7,0.2 26.3,0.2 25.6,0.4 25.6,1.2 25.7,1.7 26.2,1.7 26.9,1.5 26.9,0.7 	"/>
	<polyline class="st0" points="33.8,1.3 33.6,1.8 33.2,2.5 32.5,2.2 32,1.9 32.2,1.4 32.2,1.1 32.6,0.8 	"/>
	<polyline class="st0" points="35,13.9 35.1,13.4 35.3,12.9 35.3,12.5 35,12.5 34.6,12.3 33.9,12.2 33.7,12.6 33.4,13.5 33.7,13.6 
		34.3,13.8 	"/>
	<path class="st0" d="M34.8,14.3l-0.5-0.2L33.9,14l-0.4-0.1l-0.3,0.3L33,14.7l-0.3,0.5l0.5,0.2l0.5,0.4l0.4-0.2l0.4-0.8
		C34.5,14.8,34.7,14.3,34.8,14.3"/>
	<polyline class="st0" points="33.6,12.2 33.4,12.7 33.3,13.2 33.1,13.5 32.6,13.2 32.2,13 32.3,12.4 32.4,12 32.6,12 	"/>
	<polyline class="st0" points="31.3,7.7 31.1,8.2 30.6,8.7 30.2,8.5 29.8,8.3 29.1,8.2 29.3,7.6 29.6,7.1 29.9,7 30.4,7.2 	"/>
	<polyline class="st0" points="29.2,6.9 29.2,7.3 29,7.6 29,8.1 28.7,8.2 28,8.1 27.8,7.7 27.7,6.8 	"/>
	<polyline class="st0" points="32.6,2.5 32.4,2.9 32.3,3.4 32.1,3.9 31.6,3.8 31,3.6 30.7,3.4 30.9,3 31,2.4 31.2,1.9 31.8,2.1 	"/>
	<polyline class="st0" points="30.8,2 30.7,2.3 30.7,2.7 30.6,2.9 30.5,3.3 30,3.3 29.5,3.1 29,3.1 28.9,2.9 29.1,2.4 29.3,1.7 
		29.9,1.8 30.1,1.9 	"/>
	<polyline class="st0" points="27.1,3.1 27,2.6 27,2.4 27,1.9 27.6,1.8 28.4,1.7 28.7,1.6 28.9,1.7 28.9,2.1 28.8,2.4 28.7,2.9 
		28.3,3 27.9,3.1 	"/>
	<polyline class="st0" points="30.3,0.2 30.3,0.5 30.2,1 30.2,1.5 29.9,1.4 29.4,1.4 29.2,1.3 28.9,1.3 28.9,0.8 28.9,0.3 29,0.1 
		29.3,0 29.6,0 29.8,0.1 	"/>
	<polyline class="st0" points="30.9,3.8 30.9,4.2 30.8,4.5 30.6,4.8 30.4,5 30.1,4.8 29.7,4.7 29.2,4.6 29.1,4.4 29.3,3.4 29.6,3.4 
		30.2,3.5 30.5,3.6 	"/>
	<polyline class="st0" points="30.1,11.2 30,11.5 29.8,11.6 29.5,12 29.3,12 29,11.7 28.3,11.2 28.5,10.9 28.7,10.6 29.2,10.3 
		29.6,10.6 	"/>
	<polyline class="st0" points="29,10.2 28.7,10.5 28.3,10.8 28,10.6 27.7,10.2 27.6,10 27.9,9.9 28.4,9.9 	"/>
	<polyline class="st0" points="27.3,10.1 27.5,10.3 27.8,10.6 27.9,10.9 27.9,11.1 27.7,11.3 27.5,11.5 27.3,11.7 27.1,11.9 
		26.8,11.7 26.6,11.4 26.5,11.1 26.3,11 26.3,10.7 26.6,10.5 26.9,10.2 	"/>
	<polyline class="st0" points="30.3,12.8 30.1,12.9 29.8,12.7 29.7,12.5 29.5,12.3 29.5,12.2 29.7,12 29.9,11.8 30.1,11.7 
		30.3,11.8 	"/>
	<polyline class="st0" points="29.3,12.4 29.4,12.5 29.6,12.7 29.8,12.9 29.9,13.1 30,13.2 30,13.4 29.8,13.6 29.5,13.7 29.4,14 
		29,14 28.8,13.9 28.6,13.6 28.3,13.4 28.3,13.2 28.6,13 28.9,12.8 	"/>
	<path class="st0" d="M26.8,12l-0.2,0.2l-0.3,0.2L26,12.5l-0.1-0.3l0.1-0.3l0-0.3l0.1-0.3C26.2,11.2,26.8,12,26.8,12"/>
	<polyline class="st0" points="27,12.2 26.9,12.2 26.5,12.5 26.3,12.7 26.1,12.9 26.2,13.3 26.4,13.5 26.6,13.9 27,13.8 27.2,13.5 
		27.7,13.2 27.5,13 27.3,12.6 	"/>
	<path class="st0" d="M28,13.4l0.3,0.3l0.2,0.2l0.3,0.3l-0.5,0.2l-0.4,0l-0.4-0.2l-0.3-0.1l-0.1-0.3l0.3-0.2l0.3-0.1
		C27.7,13.5,27.9,13.4,28,13.4"/>
	<polyline class="st0" points="30.4,5.3 30.5,5.6 30.4,5.8 30.2,6.1 30,6.7 29.6,6.6 28.9,6.5 28.8,6.5 28.7,6.2 28.8,5.8 28.9,5.4 
		29,5 29.5,5 30.1,5.1 	"/>
	<polyline class="st0" points="28.6,5.1 28.7,5.4 28.5,5.9 28.4,6.3 28.3,6.5 27.7,6.5 27.2,6.5 27,6.5 26.8,6.1 26.8,5.7 26.7,5.2 
		27.1,5 27.4,5 27.8,5.1 	"/>
	<polyline class="st0" points="32.7,9.1 32.9,9.5 33.1,9.7 33.3,10.4 32.7,10.6 32.1,10.7 31.8,10.2 31.7,9.8 31.9,9.6 32.3,9.4 	
		"/>
	<polyline class="st0" points="33.4,9.7 33.5,10 33.6,10.4 33.8,10.7 34.5,10.5 35.1,10.3 34.9,9.8 34.8,9.3 34.5,8.9 34,9.2 
		33.6,9.4 	"/>
	<polyline class="st0" points="33.9,10.9 34.4,10.8 35.1,10.6 35.2,11 35.3,11.5 35.4,12 35,12.1 34.7,12.1 34.3,12 34.1,12 	"/>
	<polyline class="st0" points="35.3,10.3 35.4,10.9 35.6,11.6 35.8,11.6 36.3,11.5 36.5,11.5 36.8,11.5 36.9,11 36.7,10.6 
		36.7,10.3 36.5,9.9 36.4,9.8 35.9,10.1 	"/>
	<polyline class="st0" points="36.9,10 37.6,9.8 38.2,9.6 38.4,9.9 38.5,10.5 38.5,10.9 38.5,11 37.2,11.4 37.1,11.1 	"/>
	<polyline class="st0" points="37.1,11.6 37.7,11.5 38.3,11.5 38.6,11.6 38.6,12.2 38.5,12.5 38.5,12.7 37.8,12.7 37.2,12.8 
		37.1,12.4 	"/>
	<polyline class="st0" points="37.1,14.1 37.5,14.2 37.8,14.3 38.2,14.5 38.4,14.1 38.5,13.7 38.5,13.4 38.5,13.1 38.2,13.1 
		37.7,13.1 37.4,13.2 37.3,13.2 37.1,13.4 37.1,13.6 37.2,13.7 37,13.9 	"/>
	<polyline class="st0" points="34.8,8.7 35,9.3 35.1,9.6 35.2,10 35.6,9.9 35.9,9.7 36.4,9.6 36.4,9.3 36.3,9.2 36.3,9 36.2,8.7 
		36.1,8.3 36,8.1 35.6,8.3 	"/>
	<polyline class="st0" points="32.2,11.1 32.3,10.8 32.7,10.8 33,10.7 33.5,10.7 33.7,11.1 33.6,11.4 33.6,11.8 33,11.8 32.3,11.8 	
		"/>
	<polyline class="st0" points="35.7,7.9 35.1,8.2 34.6,8.4 34.4,8.2 34.3,8 34.1,7.8 33.9,7.6 34.3,7.2 34.7,6.8 34.9,6.8 35.4,7.1 
		35.5,7.4 35.7,7.7 	"/>
	<polyline class="st0" points="36.7,3.4 36.6,3.7 36.4,3.9 36,4.2 35.7,4.4 35.3,4.3 35,4 34.7,3.7 34.9,3.3 35.3,2.7 35.6,2.7 
		36,2.9 36.4,3.2 	"/>
	<path class="st0" d="M36,4.7c0,0-0.1,0,0-0.1c0-0.1,0.3-0.3,0.3-0.3l0.4-0.4l0.2-0.2l0.3,0L37.3,4l0.4,0.3l0.4,0.3l0,0.2L38,5.1
		l-0.4,0.1l-0.3,0.3L37,5.7l-0.1-0.2l-0.3-0.3l-0.4-0.2"/>
	<polyline class="st0" points="34.5,5.8 34.8,5.4 35,5.1 35.2,4.9 35.3,4.9 35.4,5.1 35.9,5.3 36.2,5.3 36.5,5.7 35.9,6.3 35.3,6.7 
		35,6.4 34.6,6 	"/>
	<polyline class="st0" points="36.7,6.1 37,6.6 37.1,6.8 37.2,7.1 36.8,7.2 36.6,7.4 36.1,7.7 35.9,7.5 35.7,7.2 35.6,7 35.6,6.9 
		35.9,6.6 36.1,6.5 36.3,6.3 	"/>
	<polyline class="st0" points="37.4,7.2 37.6,7.6 37.7,8 37.9,8.6 38,9 38,9.2 37.9,9.5 37.5,9.6 37.1,9.7 36.8,9.8 36.6,9.3 
		36.5,8.9 36.5,8.6 36.3,8.2 36.3,8 36.5,7.8 36.8,7.6 	"/>
	<polyline class="st0" points="33.4,4.9 33.5,5.1 33.8,5.2 34,5.5 34.3,5.6 34.6,5.4 34.8,4.9 35,4.6 34.9,4.4 34.6,4.2 34.4,4 
		34.2,3.8 33.9,4.2 33.6,4.4 	"/>
	<polyline class="st0" points="33.2,5.3 33.6,5.4 33.8,5.7 34,5.9 34.2,6 34.6,6.4 34.6,6.6 34.4,6.8 34.1,7 34,7.3 33.7,7.4 
		33.5,7.4 33.1,7.1 33,6.8 32.6,6.4 32.8,5.8 	"/>
	<polyline class="st0" points="33.3,7.5 33.7,7.7 33.9,8.1 34.2,8.3 34.5,8.6 34.1,8.9 33.7,9.2 33.4,9.4 33.2,9.3 32.9,9.1 
		32.6,8.7 32.5,8.3 32.7,8 	"/>
	<polyline class="st0" points="31.5,7.9 31.7,8 31.9,8.2 32.1,8.5 32.3,8.7 32.5,8.9 32,9.3 31.7,9.5 31.3,9.5 31.2,9.2 30.8,8.9 
		30.9,8.7 31.1,8.4 	"/>
	<polyline class="st0" points="32.3,6.6 32.5,6.7 32.8,7 33,7.3 32.9,7.4 32.7,7.7 32.4,8.1 32.2,8.2 31.9,8 31.6,7.7 31.9,7.1 	"/>
	<path class="st0" d="M38.5,9.3l0.3-0.1L39.4,9l0.5-0.2l0.2,0.2l0.1,0.6l0.1,0.4l-0.5,0.2l-0.6,0.1l-0.5,0l0-0.3l-0.1-0.2l-0.1-0.3
		C38.5,9.6,38.5,9.3,38.5,9.3"/>
	<polyline class="st0" points="38,7.8 38.4,7.6 38.8,7.4 39.2,7.3 39.4,7.1 39.6,7.6 39.8,8.1 39.9,8.5 39.6,8.7 39,8.8 38.6,9 
		38.4,9 	"/>
	<polyline class="st0" points="38.3,5.2 38.5,5.4 38.9,5.8 39,6.3 39.2,6.9 38.8,7.1 38.4,7.3 37.8,7.5 37.7,7.1 37.6,6.8 37.4,6.6 
		37.2,6 37.5,5.8 	"/>
	<polyline class="st0" points="38.9,10.6 39.4,10.5 39.9,10.4 40.3,10.4 40.4,10.6 40.5,11.1 40.5,11.5 40,11.6 39.7,11.6 39,11.7 
		38.8,11.6 38.8,11.2 38.9,11.1 	"/>
	<polyline class="st0" points="39,11.9 39.3,11.9 39.7,11.9 40.4,11.8 40.5,12.2 40.5,12.4 40.5,12.7 40.4,13.1 40.4,13.3 40,13.2 
		39.6,13.1 39.3,13 39,12.9 38.9,12.8 38.8,12.7 38.9,12.4 	"/>
	<polyline class="st0" points="35.5,13.7 35.8,13.8 36.4,14 36.8,14.1 36.9,13.6 37,13.2 36.9,13 36.5,12.9 36,12.9 35.7,12.8 
		35.6,13 35.5,13.3 35.5,13.5 	"/>
	<polyline class="st0" points="35.6,11.8 35.9,11.8 36.3,11.7 36.8,11.7 36.9,11.9 36.9,12.3 37,12.7 36.8,12.8 36.5,12.8 
		36.2,12.7 35.9,12.7 35.7,12.6 	"/>
	<polyline class="st0" points="39.1,13.3 39.6,13.3 40.3,13.5 40.4,13.7 40.3,14 40.2,14.5 39.8,14.5 38.8,14.2 38.8,14 38.9,13.8 
		39,13.5 	"/>
	<path class="st0" d="M2.3,33.4H1.5c-0.3,0-0.5,0.1-0.7,0.3c-0.2,0.2-0.3,0.6-0.3,1.1c0,0.8,0.3,1.3,0.9,1.3c0.6,0,0.9-0.5,0.9-1.2
		L2.3,33.4L2.3,33.4z M2.3,36.3v-0.5c-0.1,0.2-0.2,0.3-0.3,0.4c-0.2,0.2-0.4,0.2-0.7,0.2S0.6,36.3,0.4,36C0.2,35.8,0,35.3,0,34.7
		c0-0.6,0.2-1,0.5-1.3C0.8,33.1,1.1,33,1.6,33h0.7v-1.1c0-0.7-0.3-1.1-0.9-1.1c-0.2,0-0.4,0.1-0.6,0.2c-0.2,0.2-0.3,0.5-0.3,0.9H0.1
		c0-0.4,0.1-0.9,0.4-1.2c0.2-0.2,0.5-0.4,0.9-0.4c0.4,0,0.8,0.1,1,0.3c0.3,0.3,0.4,0.6,0.4,1.1v4.4L2.3,36.3L2.3,36.3z"/>
	<path class="st0" d="M5.5,30.7c-0.7,0-1.2,0.5-1.2,1.2v4.3H3.9v-5.8h0.4v0.6c0-0.1,0.1-0.3,0.2-0.3c0.3-0.3,0.6-0.4,1-0.4L5.5,30.7
		L5.5,30.7L5.5,30.7z"/>
	<path class="st0" d="M8.3,36c-0.2,0.2-0.6,0.4-1,0.4c-0.4,0-0.7-0.2-1-0.4C6.1,35.6,6,34.9,6,33.4c0-1.5,0.1-2.2,0.4-2.6
		c0.2-0.2,0.6-0.4,1-0.4c0.4,0,0.7,0.1,1,0.3c0.3,0.3,0.4,0.8,0.4,1.2H8.3c0-0.3,0-0.7-0.3-0.9c-0.2-0.2-0.4-0.2-0.6-0.2
		c-0.3,0-0.5,0.1-0.6,0.3c-0.3,0.3-0.3,1-0.3,2.3c0,1.4,0,2,0.3,2.3C6.9,35.9,7.1,36,7.4,36c0.2,0,0.5-0.1,0.6-0.2
		c0.2-0.2,0.3-0.5,0.3-0.9h0.4C8.7,35.4,8.6,35.7,8.3,36"/>
	<path class="st0" d="M11.9,36.3v-4.5c0-0.7-0.4-1.1-0.9-1.1c-0.5,0-0.9,0.3-0.9,1.1v4.5H9.6V28h0.4v2.9c0.1-0.1,0.2-0.3,0.3-0.3
		c0.2-0.1,0.4-0.2,0.7-0.2c0.4,0,0.7,0.1,0.9,0.4c0.2,0.2,0.4,0.6,0.4,1.1v4.4H11.9z"/>
	<path class="st0" d="M15.5,33.4h-0.7c-0.3,0-0.5,0.1-0.7,0.3c-0.2,0.2-0.3,0.6-0.3,1.1c0,0.8,0.3,1.3,0.9,1.3
		c0.6,0,0.9-0.5,0.9-1.2L15.5,33.4L15.5,33.4z M15.5,36.3v-0.5c-0.1,0.2-0.2,0.3-0.3,0.4c-0.2,0.2-0.4,0.2-0.7,0.2
		c-0.3,0-0.6-0.1-0.9-0.3c-0.2-0.2-0.4-0.7-0.4-1.3c0-0.6,0.2-1,0.5-1.3c0.3-0.3,0.6-0.4,1.1-0.4h0.7v-1.1c0-0.7-0.3-1.1-0.9-1.1
		c-0.2,0-0.4,0.1-0.6,0.2c-0.2,0.2-0.3,0.5-0.3,0.9h-0.4c0-0.4,0.1-0.9,0.4-1.2c0.2-0.2,0.5-0.4,0.9-0.4c0.4,0,0.8,0.1,1,0.3
		c0.3,0.3,0.4,0.6,0.4,1.1v4.4L15.5,36.3L15.5,36.3z"/>
	<path class="st0" d="M18.9,31c-0.1-0.1-0.4-0.3-0.6-0.3c-0.3,0-0.5,0.1-0.6,0.3c-0.3,0.3-0.3,0.8-0.3,2h1.9
		C19.3,31.9,19.2,31.3,18.9,31 M17.3,33.4c0,1.4,0,2,0.3,2.3c0.1,0.2,0.4,0.3,0.6,0.3c0.2,0,0.5-0.1,0.6-0.2
		c0.2-0.2,0.3-0.5,0.3-0.9h0.4c0,0.6-0.1,0.9-0.4,1.2c-0.2,0.2-0.6,0.4-1,0.4c-0.4,0-0.8-0.2-1-0.4c-0.3-0.4-0.5-1.1-0.5-2.6
		c0-1.5,0.1-2.2,0.4-2.6c0.2-0.2,0.5-0.4,1-0.4s0.7,0.2,1,0.4c0.3,0.4,0.4,1.1,0.4,2.6L17.3,33.4L17.3,33.4z"/>
	<path class="st0" d="M22.5,31c-0.1-0.1-0.3-0.3-0.6-0.3c-0.3,0-0.5,0.1-0.6,0.3c-0.3,0.3-0.3,1-0.3,2.3c0,1.4,0,2,0.3,2.3
		c0.1,0.2,0.3,0.3,0.6,0.3c0.3,0,0.5-0.1,0.6-0.3c0.3-0.3,0.3-1,0.3-2.3C22.8,32,22.8,31.4,22.5,31 M22.8,36c-0.2,0.2-0.5,0.4-1,0.4
		c-0.4,0-0.7-0.2-1-0.4c-0.3-0.4-0.4-1.1-0.4-2.6c0-1.5,0.1-2.2,0.4-2.6c0.2-0.2,0.5-0.4,1-0.4c0.4,0,0.7,0.2,1,0.4
		c0.3,0.4,0.4,1.1,0.4,2.6C23.3,34.9,23.2,35.6,22.8,36"/>
	<polygon class="st0" points="25.5,36.3 25.1,36.3 23.7,30.4 24.2,30.4 25.3,35.6 26.4,30.4 26.9,30.4 	"/>
	<path class="st0" d="M27.4,30.4h0.4v5.8h-0.4V30.4z M27.3,28.2h0.6v0.7h-0.6V28.2z"/>
	<path class="st0" d="M31.2,35.9c-0.3,0.3-0.6,0.4-1.1,0.4c-0.4,0-0.7-0.2-1-0.4c-0.3-0.3-0.4-0.8-0.4-1.2h0.4c0,0.4,0.1,0.7,0.3,1
		c0.2,0.2,0.4,0.3,0.6,0.3c0.3,0,0.6-0.1,0.7-0.3c0.2-0.2,0.3-0.5,0.3-0.8c0-0.3,0-0.5-0.2-0.7c-0.1-0.2-0.3-0.4-0.6-0.6l-0.7-0.4
		c-0.4-0.2-0.6-0.5-0.7-0.7c-0.1-0.2-0.1-0.4-0.1-0.7c0-0.4,0.2-0.8,0.4-1c0.2-0.2,0.6-0.4,1-0.4c0.4,0,0.7,0.1,1,0.4
		c0.3,0.3,0.4,0.7,0.4,1.2h-0.4c0-0.5-0.1-0.7-0.3-1c-0.2-0.2-0.4-0.3-0.6-0.3c-0.3,0-0.5,0.1-0.7,0.2c-0.2,0.2-0.3,0.5-0.3,0.8
		c0,0.2,0,0.4,0.1,0.6c0.1,0.2,0.3,0.3,0.6,0.5l0.7,0.4c0.4,0.2,0.6,0.4,0.8,0.7c0.2,0.3,0.2,0.6,0.2,0.9
		C31.6,35.3,31.5,35.7,31.2,35.9"/>
	<path class="st0" d="M32.5,30.4h0.4v5.8h-0.4V30.4z M32.4,28.2H33v0.7h-0.7V28.2z"/>
	<path class="st0" d="M36,31c-0.1-0.1-0.3-0.3-0.6-0.3c-0.3,0-0.5,0.1-0.6,0.3c-0.3,0.3-0.3,1-0.3,2.3c0,1.4,0,2,0.3,2.3
		c0.1,0.2,0.3,0.3,0.6,0.3c0.3,0,0.5-0.1,0.6-0.3c0.3-0.3,0.3-1,0.3-2.3C36.3,32,36.3,31.4,36,31 M36.3,36c-0.2,0.2-0.5,0.4-1,0.4
		s-0.7-0.2-1-0.4c-0.3-0.4-0.4-1.1-0.4-2.6c0-1.5,0.1-2.2,0.4-2.6c0.2-0.2,0.5-0.4,1-0.4s0.7,0.2,1,0.4c0.3,0.4,0.4,1.1,0.4,2.6
		C36.8,34.9,36.7,35.6,36.3,36"/>
	<path class="st0" d="M40,36.3v-4.5c0-0.7-0.4-1.1-0.9-1.1s-0.9,0.3-0.9,1.1v4.5h-0.4v-5.8h0.4v0.5c0.1-0.1,0.2-0.3,0.3-0.3
		c0.2-0.1,0.4-0.2,0.7-0.2c0.4,0,0.7,0.1,0.9,0.4c0.2,0.2,0.4,0.6,0.4,1.1v4.4H40z"/>
</g>
</svg>
